<svg xmlns="http://www.w3.org/2000/svg" width="16" height="16" fill="none"><path fill="#434343" d="M8 8c-1.11 0-2.05-.4-2.83-1.18C4.39 6.04 4 5.1 4 4c0-1.11.39-2.05 1.17-2.83C5.95.39 6.89 0 8 0c1.1 0 2.04.39 2.82 1.17C11.6 1.95 12 2.89 12 4c0 1.1-.4 2.04-1.18 2.82C10.04 7.6 9.1 8 8 8Zm-8 8v-2.8c0-.57.14-1.09.43-1.57.29-.47.68-.83 1.17-1.08 1.03-.52 2.08-.91 3.15-1.17C5.81 9.12 6.89 9 8 9c1.1 0 2.18.12 3.25.38 1.06.26 2.11.65 3.14 1.17.49.25.88.61 1.17 1.08.29.48.44 1 .44 1.57V16H0Zm2-2h12v-.8a.94.94 0 0 0-.14-.5c-.09-.15-.22-.27-.36-.35-.9-.45-1.81-.79-2.73-1.02a11.851 11.851 0 0 0-5.55 0c-.92.23-1.83.57-2.72 1.02a.933.933 0 0 0-.5.85v.8Zm6-8c.55 0 1.02-.2 1.41-.59.39-.39.59-.87.59-1.41 0-.55-.2-1.03-.59-1.42C9.02 2.19 8.55 2 8 2c-.56 0-1.03.19-1.42.58C6.19 2.97 6 3.45 6 4c0 .54.19 1.02.58 1.41.39.39.86.59 1.42.59Z"/></svg>